PathFileType	4	(X/Y/Z)	Run_300 01
DataRate	CameraRate	NumFrames	NumMarkers	Units	OrigDataRate	OrigDataStartFrame	OrigNumFrames
120	120	4	41	mm	120	169	125
Frame#	Time	LASI			RASI			LPSI			RPSI			RTH1			RTH3			LTH1			LTH2			LTH3			RTB1			RTB2			RTB3			LTB1			LTB2			LTB3			RCAL			RTOE			RMT5			LCAL			LTOE			LMT5			LACR			RACR			CLAV			C7			RUA1			RUA2			RUA3			RLEL			RMEL			LUA1			LUA2			LUA3			LLEL			LMEL			RFAsuperior			RFAradius			RFAulna			LFAsuperior			LFAradius			LFAulna			
		X1	Y1	Z1	X2	Y2	Z2	X3	Y3	Z3	X4	Y4	Z4	X5	Y5	Z5	X6	Y6	Z6	X7	Y7	Z7	X8	Y8	Z8	X9	Y9	Z9	X10	Y10	Z10	X11	Y11	Z11	X12	Y12	Z12	X13	Y13	Z13	X14	Y14	Z14	X15	Y15	Z15	X16	Y16	Z16	X17	Y17	Z17	X18	Y18	Z18	X19	Y19	Z19	X20	Y20	Z20	X21	Y21	Z21	X22	Y22	Z22	X23	Y23	Z23	X24	Y24	Z24	X25	Y25	Z25	X26	Y26	Z26	X27	Y27	Z27	X28	Y28	Z28	X29	Y29	Z29	X30	Y30	Z30	X31	Y31	Z31	X32	Y32	Z32	X33	Y33	Z33	X34	Y34	Z34	X35	Y35	Z35	X36	Y36	Z36	X37	Y37	Z37	X38	Y38	Z38	X39	Y39	Z39	X40	Y40	Z40	X41	Y41	Z41	

169	1.9	922.556163	1037.18948	-404.167118	922.27089	1048.614515	-171.735259	768.235419	1091.461772	-339.643233	757.38031	1093.072774	-242.788036	900.04954	899.795743	-109.774382	1019.945955	667.741297	-162.207106	809.5260919999999	860.538458	-458.871745	803.813134	745.199783	-428.01421	682.370435	678.855567	-403.309524	1089.833026	452.624015	-223.135989	1045.842707	401.366354	-155.888978	1053.129621	334.93462	-221.64326	609.813658	458.843608	-325.486969	529.004493	419.359232	-394.779544	513.977657	316.52371	-327.739673	923.927632	178.849785	-215.674776	1131.86389	157.827165	-249.91632	1114.598733	141.620513	-156.366424	369.650053	272.259081	-326.363695	481.156321	107.826357	-267.065549	452.271971	83.70837400000001	-349.075239	942.688538	1508.461156	-452.78814	821.936431	1515.661327	-89.478635	932.595238	1498.382545	-230.658768	826.835953	1557.887397	-300.570339	709.671621	1434.270027	-51.244014	657.265049	1454.903526	-102.719219	633.294364	1389.967801	-37.443279	569.098845	1348.861948	-31.782283	557.262706	1332.712712	-112.427427	914.353749	1379.717347	-528.088492	851.2945559999999	1334.96363	-550.684159	920.705767	1295.433053	-547.757193	888.375275	1219.918515	-585.109864	818.1127729999999	1210.632254	-529.338658	621.879128	1232.755429	-17.843289	673.036582	1125.406119	-54.724006	614.869015	1104.52044	-21.937057	986.518332	1210.549702	-499.968558	1020.863604	1241.920812	-382.882108	1059.277437	1191.980744	-412.897529	
170	1.908333	924.56829	1040.522476	-404.275297	923.917795	1050.621874	-171.640715	770.80372	1095.805708	-339.994649	759.389733	1096.896644	-243.17848	900.21025	900.461079	-110.565861	1016.408508	666.971083	-161.982046	809.034684	865.261674	-459.503412	802.182414	749.653912	-429.647736	680.667325	684.361939	-403.805211	1093.830589	451.524645	-223.757718	1054.227081	397.073295	-156.270037	1065.903938	331.574244	-222.707146	603.797785	464.885691	-326.093671	523.870264	426.852341	-396.028771	504.533707	324.973608	-329.084927	948.938101	165.407576	-216.913741	1157.451716	162.452195	-253.786464	1142.565608	142.949128	-159.93492	361.714171	286.869922	-329.35143	463.154281	115.496185	-270.497059	431.850775	92.82041099999999	-351.833371	943.238367	1512.232509	-451.562998	821.131117	1518.332917	-89.800917	932.497887	1501.040827	-229.836649	826.607888	1560.105027	-300.077566	708.460833	1437.683292	-51.814596	656.659366	1457.919716	-104.154947	631.923219	1393.771928	-38.274935	567.797929	1352.358214	-32.965801	556.479951	1335.798438	-113.572711	916.044498	1384.328846	-527.6801390000001	853.139594	1339.933055	-551.078098	922.64799	1300.01436	-548.068056	890.044548	1224.505556	-585.8491320000001	819.123832	1215.45228	-530.810741	621.609412	1236.780756	-18.634085	674.036566	1129.749375	-55.223296	616.0122280000001	1108.399452	-22.451288	986.815453	1215.093321	-498.796189	1019.470393	1246.605777	-381.299775	1058.147667	1196.436532	-410.690075	
171	1.916667	926.135958	1043.343194	-404.052722	925.222837	1051.435078	-171.644709	772.831071	1099.334154	-340.102145	761.138346	1099.553071	-243.166806	899.792626	899.559474	-111.248912	1012.773551	665.1500109999999	-161.698372	808.824205	869.540093	-459.751028	801.860545	753.458556	-431.132019	680.829234	688.167044	-404.548189	1096.658471	450.112475	-224.444178	1061.154495	393.055194	-156.663877	1076.966916	328.661229	-223.731113	599.30741	469.171307	-326.717007	519.995256	433.196879	-397.149313	495.277593	332.886175	-330.144741	972.099218	153.816434	-218.286814	1179.74749	168.242969	-257.2746	1167.386191	145.843955	-163.21127	353.030593	301.333585	-331.083746	444.815498	123.69239	-273.987917	411.314684	103.34864	-355.099287	943.710873	1515.019022	-450.54743	820.779177	1520.150169	-89.90074199999999	932.649053	1502.951096	-229.1028	826.546362	1561.57679	-299.605236	707.816147	1440.036588	-52.175559	656.449458	1459.863346	-105.172285	631.149399	1396.383304	-38.782362	567.122129	1354.625883	-33.751495	556.24994	1337.68222	-114.348005	917.320296	1387.928558	-527.301322	854.435442	1343.904328	-551.322076	924.087916	1303.770779	-548.820471	891.037594	1228.122466	-586.499462	819.507053	1219.344415	-532.040196	621.959843	1239.589207	-19.112735	675.577752	1132.892093	-55.484793	617.7400689999999	1111.095178	-22.628438	986.603022	1218.458201	-497.88759	1017.915194	1250.144218	-380.033145	1056.642225	1199.550331	-408.794155	
172	1.925	927.345334	1045.620123	-403.626373	926.166389	1051.285262	-171.641887	774.249005	1101.975922	-339.883334	762.584129	1100.937784	-242.734529	898.994658	897.6529860000001	-111.689981	1008.732245	662.261799	-161.515956	809.206979	873.130255	-459.656529	803.0144299999999	756.248076	-432.098377	682.811635	690.051289	-405.55541	1098.354128	448.471521	-225.295048	1066.613986	389.405517	-157.184436	1086.073174	326.186439	-224.784577	596.337419	471.765433	-327.730173	516.6463639999999	438.834786	-398.347605	486.341607	340.388791	-331.259959	992.612976	144.184977	-219.523517	1198.272701	174.527058	-260.107073	1188.4915	149.791391	-166.065547	343.557895	315.673549	-331.89998	426.568459	132.736384	-277.502141	391.400972	115.204054	-358.777651	944.106901	1516.823019	-449.806662	820.903264	1521.114914	-89.669088	933.061902	1504.163557	-228.413668	826.667632	1562.38644	-299.066562	707.7799209999999	1441.261349	-52.267847	656.6837410000001	1460.748458	-105.684995	631.015428	1397.747405	-38.963754	567.118466	1355.651875	-34.115633	556.640578	1338.377526	-114.761755	918.100097	1390.434853	-526.983725	855.104093	1346.787642	-551.380623	924.958289	1306.552383	-549.836042	891.294987	1230.71133	-586.989506	819.2167449999999	1222.267695	-532.899957	622.9564789999999	1241.160861	-19.269664	677.653577	1134.806956	-55.498832	620.034962	1112.551862	-22.512217	985.872314	1220.573289	-497.211003	1016.238637	1252.423719	-379.081704	1054.838965	1201.283715	-407.229042	
